<svg width="24" height="24" viewBox="0 0 24 24" fill="none" xmlns="http://www.w3.org/2000/svg">
<g clip-path="url(#clip0_6_111)">
<path fill-rule="evenodd" clip-rule="evenodd" d="M2.25 12C2.25413 8.27379 5.27379 5.25413 9 5.25H19.1897L18.2194 4.28062C17.9263 3.98757 17.9263 3.51243 18.2194 3.21937C18.5124 2.92632 18.9876 2.92632 19.2806 3.21937L21.5306 5.46938C21.6715 5.61005 21.7506 5.80094 21.7506 6C21.7506 6.19906 21.6715 6.38995 21.5306 6.53062L19.2806 8.78063C18.9876 9.07368 18.5124 9.07368 18.2194 8.78063C17.9263 8.48757 17.9263 8.01243 18.2194 7.71938L19.1897 6.75H9C6.10179 6.7531 3.7531 9.10179 3.75 12C3.75 12.4142 3.41421 12.75 3 12.75C2.58579 12.75 2.25 12.4142 2.25 12ZM21 11.25C20.5858 11.25 20.25 11.5858 20.25 12C20.2469 14.8982 17.8982 17.2469 15 17.25H4.81031L5.78062 16.2806C5.9702 16.0911 6.04424 15.8147 5.97485 15.5558C5.90546 15.2968 5.70319 15.0945 5.44422 15.0252C5.18526 14.9558 4.90895 15.0298 4.71938 15.2194L2.46937 17.4694C2.32854 17.6101 2.24941 17.8009 2.24941 18C2.24941 18.1991 2.32854 18.3899 2.46937 18.5306L4.71938 20.7806C4.90895 20.9702 5.18526 21.0442 5.44422 20.9748C5.70319 20.9055 5.90546 20.7032 5.97485 20.4442C6.04424 20.1853 5.9702 19.9089 5.78062 19.7194L4.81031 18.75H15C18.7262 18.7459 21.7459 15.7262 21.75 12C21.75 11.5858 21.4142 11.25 21 11.25Z" fill="#4F968F"/>
</g>
<defs>
<clipPath id="clip0_6_111">
<rect width="24" height="24" fill="white"/>
</clipPath>
</defs>
</svg>
