<svg width="24" height="24" viewBox="0 0 24 24" fill="none" xmlns="http://www.w3.org/2000/svg">
<g clip-path="url(#clip0_6_101)">
<path fill-rule="evenodd" clip-rule="evenodd" d="M10.875 16.5C10.875 16.9142 10.5392 17.25 10.125 17.25H7.5C7.08579 17.25 6.75 16.9142 6.75 16.5C6.75 16.0858 7.08579 15.75 7.5 15.75H10.125C10.5392 15.75 10.875 16.0858 10.875 16.5ZM16.5 15.75H13.875C13.4608 15.75 13.125 16.0858 13.125 16.5C13.125 16.9142 13.4608 17.25 13.875 17.25H16.5C16.9142 17.25 17.25 16.9142 17.25 16.5C17.25 16.0858 16.9142 15.75 16.5 15.75ZM23.25 20.25C23.25 20.6642 22.9142 21 22.5 21H1.5C1.08579 21 0.75 20.6642 0.75 20.25C0.75 19.8358 1.08579 19.5 1.5 19.5H3V8.25C3 7.96592 3.1605 7.70622 3.41459 7.57918C3.66868 7.45214 3.97274 7.47955 4.2 7.65L9 11.25V8.25C9 7.96592 9.1605 7.70622 9.41459 7.57918C9.66868 7.45214 9.97274 7.47955 10.2 7.65L13.8319 10.3734L14.9156 2.78813C15.0241 2.05067 15.6552 1.50319 16.4006 1.5H18.0994C18.8448 1.50319 19.4759 2.05067 19.5844 2.78813L20.9906 12.6441C20.9906 12.6441 20.9981 12.7172 20.9981 12.75V19.5H22.4981C22.6974 19.4995 22.8886 19.5783 23.0297 19.719C23.1707 19.8597 23.25 20.0508 23.25 20.25ZM15.2006 11.4L16.0003 12H19.3856L18.0994 3H16.4006L15.2006 11.4ZM4.5 19.5H19.5V13.5H15.75C15.5877 13.5 15.4298 13.4474 15.3 13.35L13.95 12.3375L10.5 9.75V12.75C10.5 13.0341 10.3395 13.2938 10.0854 13.4208C9.83132 13.5479 9.52726 13.5204 9.3 13.35L4.5 9.75V19.5Z" fill="#4F968F"/>
</g>
<defs>
<clipPath id="clip0_6_101">
<rect width="24" height="24" fill="white"/>
</clipPath>
</defs>
</svg>
