<svg width="24" height="24" viewBox="0 0 24 24" fill="none" xmlns="http://www.w3.org/2000/svg">
<g clip-path="url(#clip0_6_91)">
<path fill-rule="evenodd" clip-rule="evenodd" d="M22.2806 6.21938C22.1399 6.07854 21.9491 5.99941 21.75 5.99941C21.5509 5.99941 21.3601 6.07854 21.2194 6.21938L18 9.43969L14.5603 6L17.7806 2.78063C17.9702 2.59105 18.0442 2.31474 17.9748 2.05578C17.9055 1.79681 17.7032 1.59454 17.4442 1.52515C17.1853 1.45576 16.9089 1.5298 16.7194 1.71938L13.5 4.93969L11.0306 2.46937C10.7376 2.17632 10.2624 2.17632 9.96937 2.46937C9.67632 2.76243 9.67632 3.23757 9.96937 3.53063L10.5647 4.125L5.59594 9.09375C4.89263 9.79702 4.49752 10.7509 4.49752 11.7455C4.49752 12.7401 4.89263 13.6939 5.59594 14.3972L7.06875 15.87L2.46937 20.4694C2.17632 20.7624 2.17632 21.2376 2.46937 21.5306C2.76243 21.8237 3.23757 21.8237 3.53063 21.5306L8.13281 16.9284L9.60563 18.4013C10.3089 19.1046 11.2627 19.4997 12.2573 19.4997C13.2519 19.4997 14.2058 19.1046 14.9091 18.4013L19.8778 13.4325L20.4722 14.0278C20.7652 14.3209 21.2404 14.3209 21.5334 14.0278C21.8265 13.7348 21.8265 13.2596 21.5334 12.9666L19.0603 10.5L22.2806 7.28062C22.4215 7.13995 22.5006 6.94906 22.5006 6.75C22.5006 6.55094 22.4215 6.36005 22.2806 6.21938ZM13.8488 17.3438C13.4268 17.766 12.8543 18.0032 12.2573 18.0032C11.6604 18.0032 11.0879 17.766 10.6659 17.3438L6.65625 13.3341C6.23404 12.9121 5.99682 12.3396 5.99682 11.7427C5.99682 11.1457 6.23404 10.5732 6.65625 10.1512L11.625 5.1825L18.8147 12.375L13.8488 17.3438Z" fill="#4F968F"/>
</g>
<defs>
<clipPath id="clip0_6_91">
<rect width="24" height="24" fill="white"/>
</clipPath>
</defs>
</svg>
